<svg width="5" height="8" viewBox="0 0 5 8" fill="none" xmlns="http://www.w3.org/2000/svg">
<g clip-path="url(#clip0_426_27)">
<path d="M2.6916 3.98534C2.64101 3.94344 2.59674 3.9141 2.56091 3.87639C1.79573 3.11578 1.03266 2.35517 0.267483 1.59456C-0.088757 1.23835 -0.088757 0.800429 0.267483 0.442126C0.33072 0.377171 0.396066 0.314311 0.461412 0.249355C0.796572 -0.0796129 1.24556 -0.0858989 1.58072 0.24726C2.64101 1.29912 3.69919 2.35517 4.75736 3.41122C5.08409 3.73809 5.07988 4.26821 4.75315 4.59509C3.69497 5.65114 2.63679 6.70509 1.5765 7.75905C1.25188 8.08173 0.796572 8.08173 0.471951 7.76324C0.387634 7.67942 0.301209 7.59771 0.219 7.5118C-0.0718936 7.20797 -0.0761094 6.75957 0.221108 6.45784C0.579456 6.09116 0.946235 5.73285 1.31091 5.37036C1.73881 4.94501 2.16672 4.51756 2.59463 4.09221C2.62204 4.06287 2.64733 4.03354 2.6916 3.98534Z" fill="white"/>
</g>
<defs>
<clipPath id="clip0_426_27">
<rect width="5" height="8" fill="white"/>
</clipPath>
</defs>
</svg>
