<svg width="5" height="9" viewBox="0 0 5 9" fill="none" xmlns="http://www.w3.org/2000/svg">
<g clip-path="url(#clip0_426_31)">
<path d="M2.6916 4.27001C2.64101 4.22511 2.59674 4.19368 2.56091 4.15327C1.79573 3.33833 1.03266 2.5234 0.267483 1.70846C-0.088757 1.32681 -0.088757 0.857603 0.267483 0.473707C0.33072 0.404112 0.396066 0.336761 0.461412 0.267166C0.796572 -0.0852995 1.24556 -0.0920345 1.58072 0.264921C2.64101 1.39191 3.69919 2.5234 4.75736 3.65488C5.08409 4.0051 5.07988 4.57309 4.75315 4.92331C3.69497 6.05479 2.63679 7.18403 1.5765 8.31326C1.25188 8.65899 0.796572 8.659 0.471951 8.31775C0.387634 8.22795 0.301209 8.1404 0.219 8.04835C-0.0718936 7.72283 -0.0761094 7.2424 0.221108 6.91912C0.579456 6.52624 0.946235 6.14234 1.31091 5.75396C1.73881 5.29822 2.16672 4.84024 2.59463 4.38451C2.62204 4.35308 2.64733 4.32165 2.6916 4.27001Z" fill="black"/>
</g>
<defs>
<clipPath id="clip0_426_31">
<rect width="5" height="8.57143" fill="white"/>
</clipPath>
</defs>
</svg>
