<svg width="16" height="16" viewBox="0 0 16 16" fill="none" xmlns="http://www.w3.org/2000/svg">
<path d="M14.2347 10.9345V12.9345C14.2355 13.1202 14.1974 13.304 14.123 13.4741C14.0487 13.6442 13.9396 13.7969 13.8027 13.9224C13.6659 14.048 13.5044 14.1435 13.3285 14.203C13.1526 14.2625 12.9663 14.2846 12.7814 14.2679C10.7299 14.045 8.75936 13.344 7.02803 12.2212C5.41725 11.1976 4.05159 9.83197 3.02803 8.22119C1.90135 6.48199 1.20019 4.50185 0.981363 2.44119C0.964704 2.25684 0.986613 2.07103 1.0457 1.89561C1.10478 1.72018 1.19974 1.55898 1.32454 1.42227C1.44934 1.28556 1.60123 1.17633 1.77056 1.10154C1.93988 1.02675 2.12292 0.988032 2.30803 0.987858H4.30803C4.63157 0.984673 4.94522 1.09924 5.19054 1.31021C5.43585 1.52118 5.59608 1.81416 5.64136 2.13452C5.72578 2.77457 5.88233 3.40301 6.10803 4.00786C6.19773 4.24647 6.21714 4.5058 6.16397 4.75511C6.1108 5.00442 5.98727 5.23327 5.80803 5.41452L4.96136 6.26119C5.9104 7.93022 7.29233 9.31215 8.96136 10.2612L9.80803 9.41452C9.98929 9.23528 10.2181 9.11176 10.4674 9.05859C10.7168 9.00542 10.9761 9.02483 11.2147 9.11452C11.8195 9.34022 12.448 9.49678 13.088 9.58119C13.4119 9.62688 13.7076 9.79 13.9191 10.0395C14.1305 10.289 14.2428 10.6076 14.2347 10.9345Z" stroke="#2B3939" stroke-linecap="round" stroke-linejoin="round"/>
</svg>
