<svg width="20" height="21" viewBox="0 0 20 21" fill="none" xmlns="http://www.w3.org/2000/svg">
<g clip-path="url(#clip0_592_2037)">
<path d="M6.2918 19.0313C13.8371 19.0313 17.9652 12.4659 17.9652 6.77416C17.9652 6.58959 17.9613 6.40092 17.9535 6.21635C18.7566 5.60656 19.4496 4.85125 20 3.98592C19.2521 4.33531 18.458 4.56349 17.6449 4.66267C18.5011 4.12383 19.1421 3.27732 19.4492 2.28008C18.6438 2.78127 17.763 3.13482 16.8445 3.32556C16.2257 2.63515 15.4075 2.17801 14.5164 2.02483C13.6253 1.87164 12.711 2.03095 11.9148 2.47811C11.1186 2.92528 10.4848 3.6354 10.1115 4.49868C9.73825 5.36196 9.64619 6.33032 9.84961 7.25404C8.21874 7.16811 6.62328 6.72327 5.16665 5.94837C3.71002 5.17346 2.42474 4.08579 1.39414 2.75586C0.870333 3.70412 0.710047 4.82622 0.945859 5.89411C1.18167 6.962 1.79589 7.89555 2.66367 8.50502C2.01219 8.4833 1.37498 8.29913 0.804688 7.96771V8.02103C0.804104 9.01616 1.13175 9.98079 1.73192 10.751C2.3321 11.5211 3.16777 12.0493 4.09687 12.2456C3.49338 12.419 2.85999 12.4443 2.2457 12.3195C2.50788 13.1753 3.01798 13.9238 3.70481 14.4606C4.39164 14.9973 5.22093 15.2956 6.07695 15.3136C4.62369 16.5123 2.82848 17.1624 0.980469 17.1593C0.652739 17.1588 0.325333 17.1377 0 17.0962C1.87738 18.3608 4.06128 19.0325 6.2918 19.0313Z" fill="#006A6D"/>
</g>
<defs>
<clipPath id="clip0_592_2037">
<rect width="20" height="21" fill="white"/>
</clipPath>
</defs>
</svg>
